# xmcd CD Database Entry
#
# Track frame offsets:
# 150
# 21739
# 36206
# 53363
# 70651
# 85326
# 104762
# 125113
# 146067
# 159639
# 178044
# 197705
# 209102
# 229958
# 247928
#
# Disc length: 3517 seconds
#
# Revision: 1
# Processed by: cddbd v1.4PL0 Copyright (c) Steve Scherf et al.
# Submitted via: tcd 2.0b
#
DISCID=e40dbb0f
DTITLE=KENDEL/HOT JOINTS
DYEAR=1900
DGENRE=
TTITLE0=Opps
TTITLE1=Booty
TTITLE2=Rekah
TTITLE3=Beanie Man
TTITLE4=Special Delivery
TTITLE5=Phatty Gurl (Remix)
TTITLE6=Usher
TTITLE7=Ether
TTITLE8=Super Ugly
TTITLE9=Roc Da Mic
TTITLE10=They Aint Ready
TTITLE11=People Talk
TTITLE12=Pass The Couvousier
TTITLE13=Lovely
TTITLE14=Foxy Brown
EXTD=
EXTT0=
EXTT1=
EXTT2=
EXTT3=
EXTT4=
EXTT5=
EXTT6=
EXTT7=
EXTT8=
EXTT9=
EXTT10=
EXTT11=
EXTT12=
EXTT13=
EXTT14=
PLAYORDER=
